<?xml version="1.0" encoding="UTF-8"?>
<svg version="1.1" viewBox="0 0 131.88 131.88" xmlns="http://www.w3.org/2000/svg">
   <g transform="translate(-12.283 -103.26)">
      <path d="m41.828 172.86s-3.0625 11.388-15.153 9.1222c-9.867-1.8494-12.67-8.3696-11.586-15.176 1.3833-8.6841 4.3214-13.259 11.586-15.899 8.8538-3.2177 12.131-1.4398 18.489 2.1226 5.0582 2.8341 8.8885 5.9656 9.0106 14.652 0.37556 26.724 6.9539 38.342 12.925 38.5 6.0259 0.15908 13.133-2.75 12.583-22.55s-10.286-30.567 4.4667-31.625c15.543-1.1149 6.2502 14.528 7.3502 32.678 0.43876 7.2396 2.4561 21.834 10.922 22.232 9.3318 0.43944 12.427-27.664 8.7046-48.269-2.0638-11.423 10.041-23.442 33.011-23.258" fill="none" stroke="#f5bd00" stroke-width="8"/>
   </g>
</svg>
